<?xml version="1.0" encoding="iso-8859-1"?>
<!-- Generator: Adobe Illustrator 19.0.0, SVG Export Plug-In . SVG Version: 6.00 Build 0)  -->
<svg version="1.1" id="Layer_1" xmlns="http://www.w3.org/2000/svg" xmlns:xlink="http://www.w3.org/1999/xlink" x="0px" y="0px"
	 viewBox="0 0 512 512" style="enable-background:new 0 0 512 512;" xml:space="preserve">
<g>
	<g>
		<path d="M35.944,264.348l34.305,205.837c2.684,16.101,16.614,27.902,32.937,27.902h310.857c16.618,0,30.706-12.219,33.056-28.67
			l29.292-205.069H35.944z M172.522,414.609c0,9.223-7.473,16.696-16.696,16.696c-9.223,0-16.696-7.473-16.696-16.696V314.435
			c0-9.223,7.473-16.696,16.696-16.696c9.223,0,16.696,7.473,16.696,16.696V414.609z M272.696,414.609
			c0,9.223-7.473,16.696-16.696,16.696s-16.696-7.473-16.696-16.696V314.435c0-9.223,7.473-16.696,16.696-16.696
			s16.696,7.473,16.696,16.696V414.609z M372.87,414.609c0,9.223-7.473,16.696-16.696,16.696c-9.223,0-16.696-7.473-16.696-16.696
			V314.435c0-9.223,7.473-16.696,16.696-16.696c9.223,0,16.696,7.473,16.696,16.696V414.609z"/>
	</g>
</g>
<g>
	<g>
		<path d="M495.304,164.174h-48.739L301.195,18.805c-6.521-6.521-17.087-6.521-23.609,0c-6.521,6.516-6.521,17.092,0,23.609
			l121.761,121.76H112.652l121.76-121.761c6.521-6.516,6.521-17.092,0-23.609c-6.521-6.521-17.087-6.521-23.609,0L65.435,164.174
			H16.696C7.475,164.174,0,171.649,0,180.87v33.391c0,9.22,7.475,16.696,16.696,16.696h478.609c9.22,0,16.696-7.475,16.696-16.696
			V180.87C512,171.649,504.525,164.174,495.304,164.174z"/>
	</g>
</g>
<g>
</g>
<g>
</g>
<g>
</g>
<g>
</g>
<g>
</g>
<g>
</g>
<g>
</g>
<g>
</g>
<g>
</g>
<g>
</g>
<g>
</g>
<g>
</g>
<g>
</g>
<g>
</g>
<g>
</g>
</svg>
